<mxfile host="app.diagrams.net" modified="2023-08-12T14:55:51.658Z" agent="Mozilla/5.0 (Windows NT 10.0; Win64; x64) AppleWebKit/537.36 (KHTML, like Gecko) Chrome/115.0.0.0 Safari/537.36 Edg/115.0.1901.200" etag="Dx5usMP7F2ILf95BRgeV" version="21.6.8" type="github">
  <diagram id="wFE0QG_FPsp0jaGvCLVb" name="Page-1">
    <mxGraphModel dx="1883" dy="470" grid="1" gridSize="10" guides="1" tooltips="1" connect="1" arrows="1" fold="1" page="1" pageScale="1" pageWidth="850" pageHeight="1100" math="0" shadow="0">
      <root>
        <mxCell id="0" />
        <mxCell id="1" parent="0" />
        <mxCell id="x2dVQQzCQsfYvZ4flrbW-4" value="" style="rounded=0;whiteSpace=wrap;html=1;" vertex="1" parent="1">
          <mxGeometry x="-17.5" y="150" width="810" height="480" as="geometry" />
        </mxCell>
        <mxCell id="x2dVQQzCQsfYvZ4flrbW-5" value="" style="rounded=1;whiteSpace=wrap;html=1;" vertex="1" parent="1">
          <mxGeometry x="30" y="230" width="715" height="385" as="geometry" />
        </mxCell>
        <mxCell id="x2dVQQzCQsfYvZ4flrbW-8" value="" style="shape=image;imageAspect=0;aspect=fixed;verticalLabelPosition=bottom;verticalAlign=top;strokeColor=default;fontFamily=Helvetica;fontSize=12;fontColor=default;fillColor=default;html=1;image=https://th.bing.com/th/id/OIP.rEFL_IzHXWY3AbHj6PbGaAHaEk?w=289&amp;h=180&amp;c=7&amp;r=0&amp;o=5&amp;dpr=1.3&amp;pid=1.7;" vertex="1" parent="1">
          <mxGeometry x="100" y="484.84" width="103.08" height="64.32" as="geometry" />
        </mxCell>
        <mxCell id="x2dVQQzCQsfYvZ4flrbW-10" value="" style="shape=image;imageAspect=0;aspect=fixed;verticalLabelPosition=bottom;verticalAlign=top;strokeColor=default;fontFamily=Helvetica;fontSize=12;fontColor=default;fillColor=default;html=1;image=https://imgs.search.brave.com/ExOwjo-jAVa8eDIqwqx4rVL9UfUb7pUdj-VbRbEtbcw/rs:fit:500:0:0/g:ce/aHR0cHM6Ly93d3cu/dGhlc21iZ3VpZGUu/Y29tL2ltYWdlcy9p/Ym0tY2xvdWQtb2Jq/ZWN0LXN0b3JhZ2Ut/NDIweDMyMC0yMDE4/MDIxOS5wbmc;" vertex="1" parent="1">
          <mxGeometry x="100" y="250" width="105" height="80" as="geometry" />
        </mxCell>
        <mxCell id="x2dVQQzCQsfYvZ4flrbW-34" style="edgeStyle=orthogonalEdgeStyle;rounded=0;orthogonalLoop=1;jettySize=auto;html=1;entryX=0.5;entryY=0;entryDx=0;entryDy=0;fontFamily=Helvetica;fontSize=12;fontColor=default;" edge="1" parent="1" source="x2dVQQzCQsfYvZ4flrbW-12" target="x2dVQQzCQsfYvZ4flrbW-13">
          <mxGeometry relative="1" as="geometry" />
        </mxCell>
        <mxCell id="x2dVQQzCQsfYvZ4flrbW-12" value="" style="shape=image;imageAspect=0;aspect=fixed;verticalLabelPosition=bottom;verticalAlign=top;strokeColor=default;fontFamily=Helvetica;fontSize=12;fontColor=default;fillColor=default;html=1;image=https://th.bing.com/th/id/OIP.KUxEY9dToSQCJHv9aMNDswAAAA?w=152&amp;h=141&amp;c=7&amp;r=0&amp;o=5&amp;dpr=1.3&amp;pid=1.7;" vertex="1" parent="1">
          <mxGeometry x="585.77" y="255" width="75.36" height="70" as="geometry" />
        </mxCell>
        <mxCell id="x2dVQQzCQsfYvZ4flrbW-35" style="edgeStyle=orthogonalEdgeStyle;rounded=0;orthogonalLoop=1;jettySize=auto;html=1;fontFamily=Helvetica;fontSize=12;fontColor=default;" edge="1" parent="1" source="x2dVQQzCQsfYvZ4flrbW-13" target="x2dVQQzCQsfYvZ4flrbW-14">
          <mxGeometry relative="1" as="geometry" />
        </mxCell>
        <mxCell id="x2dVQQzCQsfYvZ4flrbW-13" value="" style="shape=image;imageAspect=0;aspect=fixed;verticalLabelPosition=bottom;verticalAlign=top;strokeColor=default;fontFamily=Helvetica;fontSize=12;fontColor=default;fillColor=default;html=1;image=https://developers.google.com/blockly/images/logos/logo_vertical.png;" vertex="1" parent="1">
          <mxGeometry x="576.78" y="440" width="93.34" height="74.84" as="geometry" />
        </mxCell>
        <mxCell id="x2dVQQzCQsfYvZ4flrbW-38" style="edgeStyle=orthogonalEdgeStyle;rounded=0;orthogonalLoop=1;jettySize=auto;html=1;entryX=0.5;entryY=1;entryDx=0;entryDy=0;fontFamily=Helvetica;fontSize=12;fontColor=default;" edge="1" parent="1" source="x2dVQQzCQsfYvZ4flrbW-14" target="x2dVQQzCQsfYvZ4flrbW-15">
          <mxGeometry relative="1" as="geometry" />
        </mxCell>
        <mxCell id="x2dVQQzCQsfYvZ4flrbW-59" style="edgeStyle=orthogonalEdgeStyle;rounded=0;orthogonalLoop=1;jettySize=auto;html=1;fontFamily=Helvetica;fontSize=12;fontColor=default;" edge="1" parent="1" source="x2dVQQzCQsfYvZ4flrbW-14" target="x2dVQQzCQsfYvZ4flrbW-58">
          <mxGeometry relative="1" as="geometry" />
        </mxCell>
        <mxCell id="x2dVQQzCQsfYvZ4flrbW-14" value="" style="shape=image;imageAspect=0;aspect=fixed;verticalLabelPosition=bottom;verticalAlign=top;strokeColor=default;fontFamily=Helvetica;fontSize=12;fontColor=default;fillColor=default;html=1;image=https://th.bing.com/th?q=Plotly+Dash+Logo+Transparent&amp;dc=2&amp;w=100&amp;h=100&amp;c=1&amp;rs=1&amp;qlt=90&amp;cb=1&amp;dpr=1.3&amp;pid=InlineBlock&amp;mkt=en-WW&amp;cc=VN&amp;setlang=en&amp;adlt=strict&amp;t=1&amp;mw=247;" vertex="1" parent="1">
          <mxGeometry x="390" y="453.63" width="95.16" height="47.58" as="geometry" />
        </mxCell>
        <mxCell id="x2dVQQzCQsfYvZ4flrbW-37" style="edgeStyle=orthogonalEdgeStyle;rounded=0;orthogonalLoop=1;jettySize=auto;html=1;fontFamily=Helvetica;fontSize=12;fontColor=default;" edge="1" parent="1" source="x2dVQQzCQsfYvZ4flrbW-15" target="x2dVQQzCQsfYvZ4flrbW-14">
          <mxGeometry relative="1" as="geometry" />
        </mxCell>
        <mxCell id="x2dVQQzCQsfYvZ4flrbW-60" style="edgeStyle=orthogonalEdgeStyle;rounded=0;orthogonalLoop=1;jettySize=auto;html=1;entryX=0.5;entryY=0;entryDx=0;entryDy=0;fontFamily=Helvetica;fontSize=12;fontColor=default;" edge="1" parent="1" source="x2dVQQzCQsfYvZ4flrbW-15" target="x2dVQQzCQsfYvZ4flrbW-58">
          <mxGeometry relative="1" as="geometry" />
        </mxCell>
        <mxCell id="x2dVQQzCQsfYvZ4flrbW-15" value="" style="shape=image;imageAspect=0;aspect=fixed;verticalLabelPosition=bottom;verticalAlign=top;strokeColor=default;fontFamily=Helvetica;fontSize=12;fontColor=default;fillColor=default;html=1;image=https://th.bing.com/th/id/OIP.T7R73-LPRUgy36Z_iOj7pQAAAA?w=307&amp;h=154&amp;c=7&amp;r=0&amp;o=5&amp;dpr=1.3&amp;pid=1.7;" vertex="1" parent="1">
          <mxGeometry x="397.68" y="386.74" width="79.8" height="40" as="geometry" />
        </mxCell>
        <mxCell id="x2dVQQzCQsfYvZ4flrbW-18" value="" style="shape=image;imageAspect=0;aspect=fixed;verticalLabelPosition=bottom;verticalAlign=top;strokeColor=default;fontFamily=Helvetica;fontSize=12;fontColor=default;fillColor=default;html=1;image=https://th.bing.com/th/id/OIP.dEgEQ0JBlwn323Q_i0spsgHaEK?w=277&amp;h=180&amp;c=7&amp;r=0&amp;o=5&amp;dpr=1.3&amp;pid=1.7;shadow=1;" vertex="1" parent="1">
          <mxGeometry x="247.7" y="165" width="92.3" height="60" as="geometry" />
        </mxCell>
        <mxCell id="x2dVQQzCQsfYvZ4flrbW-19" value="" style="shape=image;imageAspect=0;aspect=fixed;verticalLabelPosition=bottom;verticalAlign=top;strokeColor=default;fontFamily=Helvetica;fontSize=12;fontColor=default;fillColor=default;html=1;image=https://th.bing.com/th/id/OIP.uPS5sdIQY6LMLaVh-bhlvAHaCH?w=322&amp;h=100&amp;c=7&amp;r=0&amp;o=5&amp;dpr=1.3&amp;pid=1.7;" vertex="1" parent="1">
          <mxGeometry x="397.68" y="180" width="160.77" height="50" as="geometry" />
        </mxCell>
        <mxCell id="x2dVQQzCQsfYvZ4flrbW-23" value="" style="endArrow=classic;html=1;rounded=0;fontFamily=Helvetica;fontSize=12;fontColor=default;entryX=0;entryY=0.5;entryDx=0;entryDy=0;" edge="1" parent="1" source="x2dVQQzCQsfYvZ4flrbW-10" target="x2dVQQzCQsfYvZ4flrbW-11">
          <mxGeometry width="50" height="50" relative="1" as="geometry">
            <mxPoint x="420" y="370" as="sourcePoint" />
            <mxPoint x="470" y="320" as="targetPoint" />
          </mxGeometry>
        </mxCell>
        <mxCell id="x2dVQQzCQsfYvZ4flrbW-25" value="" style="endArrow=classic;html=1;rounded=0;fontFamily=Helvetica;fontSize=12;fontColor=default;" edge="1" parent="1" source="x2dVQQzCQsfYvZ4flrbW-11" target="x2dVQQzCQsfYvZ4flrbW-12">
          <mxGeometry width="50" height="50" relative="1" as="geometry">
            <mxPoint x="420" y="370" as="sourcePoint" />
            <mxPoint x="470" y="320" as="targetPoint" />
            <Array as="points">
              <mxPoint x="420" y="280" />
              <mxPoint x="450" y="290" />
            </Array>
          </mxGeometry>
        </mxCell>
        <mxCell id="x2dVQQzCQsfYvZ4flrbW-11" value="" style="shape=image;imageAspect=0;aspect=fixed;verticalLabelPosition=bottom;verticalAlign=top;strokeColor=default;fontFamily=Helvetica;fontSize=12;fontColor=default;fillColor=default;html=1;image=data:image/jpeg,/9j/4AAQSkZJRgABAQAAAQABAAD/2wBDAAsJCQcJCQcJCQkJCwkJCQkJCQsJCwsMCwsLDA0QDBEODQ4MEhkSJRodJR0ZHxwpKRYlNzU2GioyPi0pMBk7IRP/2wBDAQcICAsJCxULCxUsHRkdLCwsLCwsLCwsLCwsLCwsLCwsLCwsLCwsLCwsLCwsLCwsLCwsLCwsLCwsLCwsLCwsLCz/wAARCADqAa8DASIAAhEBAxEB/8QAHAABAAICAwEAAAAAAAAAAAAAAAEHBQYDBAgC/8QATRAAAQQBAgMEBwIJCAkEAwEAAQACAwQRBSEGEjETQVFhBxQicYGRoTJSFSNCcpKiscHwFiRDYpSy0eEzNFZzgoOTwtJEU2PxJlSEo//EABsBAQACAwEBAAAAAAAAAAAAAAABAgQFBgMH/8QALBEBAAICAQMCBQMFAQAAAAAAAAEDAgQRBRIxIUETIjJRcaGx8DNDgZHRYf/aAAwDAQACEQMRAD8AttERAREQEREBERAREQEREBERAREQEREBERAREQEREBERAREQEREBERAREQEREBERAREKCP8A7Ws69rj4HvoUy0SAYsS4a7kyPsMDts+PvWeu2RUp27RGexic9oO3M7GGt+Jwq0c573OfI4ue9xe9x3LnOOSStH1bcmnCK8J9Z/Zu+kacXZTZnHMY/uHod85Kz2i67JUdFVtuBqHDWP5Wgw52yeUfZWAT4Z8Qe8Ll9fYzoz78PP7up2NfDYw7M/H3+y1AQQCCMHcYUrXeG9SNiD1KZ2Z6zRyOJ3khzgH3joVsQ7l3uvfjfXFmLgb6cqLJry9hERe7xEREBERAREQEREBERAREQEREBERAREQEREBERAREQEREBERAREQEREBERAREQEREBERAREQEREBERBguJ5ez0wRg4M9iKM/mtzIf2LSFtHF0p5tNgB2xNM4fFrB+9asuK6vZ3bMx9uIdr0ivt1on78yIu9plB2ozzwNJBbVklYe4SAgMDvJdNzXsc9j2lr2Ete09WuBwQtbNeUYRn7S2UW4znNceYctWzNTsQ2Ys88TgSO57Ojmn3qx6tiK1XhsREGOVoePLPcVWP+S2LhrUexmNCV2Ip3F0GejZT1YPJ3UefvW36Rt/Cz+Fl4yafq+n8XD4uPnH9m5ooHcpXXuQERfLnsY0ue4NaOpcQB8ynPA+kWMsa9olfma602R4/IgBlPzb7P1WIn4taMirTJ8HWJMfqsz+1Ydu9r1fVnH7syrR2Lfpwn9m1ItKHFWq82XQ1C3OeUNkacfncx/Ys/pWt1dSD2FphnjaHPje4EFpOOZjtsj4ftXnT1Gi/Ltxn1Xv6fsUY92cejLIiLYsAREQEREBERAREQEREBERAREQEREBERAREQEREBERAREQEREBERAREQEREBERAQpsmyDROJZjLqsrdsQQwwj4jtD/AHlhV29RmFjUNQmByH2ZeX81p5R+xdX+Pqvnm1Z8S7PKPvL6FqV/Dpwxn7Q2fhGLLtTn/wBzCPk55/cvjifTezeNQiHsylrLIA6SdGyfHof81k+F4hHpYkI3nsTyZ8QD2YP0WYnhisRSwStDo5WOY8HvBGF1FWnF2jjXPnjly125NO9lbHiJ4VepBc0hzSWuaQ5jh1a4HIIK7F2pLRtTVZMl0bvZcRjnYfsuC6y5HLHKvKcfEw7DHLGzCMo9YlvFPiDTnUoZbc7I5wOSRgDi4vbsS1rR0PVdexxXUZkVa0sp+9KRE3Pu3ctP/jZFtp6vsdsY4+nHu1EdH14ynLLmefZmp+JNZmyGPjrtO2IWAu/Tfk/RYmWexYPNPNLKe7tXud9Dt9Fx9EyAMkgAb5JAGPitfZs3Wz82Uy2NetTV9GMQfx5D4Inh57/BFjskXaoCw6wRBkP7GTp90OZkfsXVJABJOABk58FuPDelvrRPuWGYnssAja7rHADkAjxPU/BZulrZbFvbHpwwd7ax1qu6fXlsmybIi75wJsmyIgbJsiIGybIiBsmyIgbJsiIGybIiBsmyIgbJsiIGybIiBsmyIgbJsiIGybIiBsmyIgbJsiIGybIiBsmyZTKBsmyZ9yZKBsix9nWdJqcwmtRlw/Ii/GP92GZWFs8Wj2hTq56gSWXY+PZt3+qw7t2in0zy9f8AbMp0r7vXDH0/1DaV0ruo0KbJDLZiZIGOLY+YF5dg4HIN/otJs6zq9vIltPaw/kQ/im48Dyb/AFWPytNf1vHxXj/mW4o6Hl5sy/xASSST1cS4+8nJUEgBxPcCfki+44zNJBCP6aaKLx+24NXNRzlP5dNPGMfhYmkw9hpunREYLa0XMP6xbzH9q7pwobgNA6YAAHu2X0vo1eMY4xjHtD5xZn35TlPuwHEem+tVvWom5nqtc446vh6uHw6haVt1yMeKtMgFYiPhvQ2SSSugdIXvc8NlkcY2EnOGsGBhaXqHTMtiyLKuImfPLddO6njrVzXbzMR44aE3L3cjAXvJwGxtL3E+5oKyUGh63YxioYmn8qw4Rj5bu+i36GvWrt5IIo4mfdiY1o/VC5Oi8q+h4x62Zc/h629czn0rx4/LVK/CTjg27mM9WVmY+b5Mn6Bc1yjoGiVxMazZ7DyW122HGR0jx3kO7h1O37VnblyvRryWZ3YYwYAB9p7z0Y0eJ/joq9vXbGoWZLM53d7LGAnlijHRjP2nx/Y3I1tHDivH55/nJpzs7+fNuc9kef8AjglkkmkklkOXvcXHAAaM9zQO7uXxhSsroukO1OfnlBFKF+Jjv+Oe07xNPh975e7nKqc77Iwx8z/OXR23YUVznl4j+cO3w9o/rT2X7Lf5tG7mrRu6TSN/pHD7o7luYAHf5KGMYxrWsAa1oDWhoAAA2AC+l3Wpq46tfbj595+7hdvay2rO/Lx7R9hSoRZjEFKhEBERBKhEQEREBERAREQEREBERBKhEQEREBSoRAREQEREBERAREQF8PexjXPeWtYwFznOOA0DqSSvpatxXclb6rRY4tZI0zzY/KHNytafLY5/yWNtXxr1TZPsyNWidi3GvH3Tf4pALo9Pia/Bx28wPIfzGDc/Na/Z1LU7ZPb2pnNP5DTyR/oMwF00XFX7198/Nl6faPR22voUUR8uPr959Tp0RfTWveQ1jXOe44a1gLi4+AwsnW4f1uzykwtrsPV9lwB/6bMlY9dNl3phHL3svqp9c8uGLUAgkAbk7ADJJ9wG/wBFuFbhSkzBtzzTuG5bGeyj923tfVZutQ0+oMV60Ufm1o5j73H2vqtvT0a7P+pPb+rU3dapw9K47v0aLW0XWrfKWVjEx2Pxlk9m3H5p9v8AVWf0/hhteavYs2TJJDIJGMhaGx8wzjmLsuP0WyYCYC3FHSaKZjKfWWmv6tsXROPiEoiLbtSIiboC45ZoYY5JpXtZFE0uke47NaPFfRdgEkgAbknYAea0fXdYN+U14HfzOJ2dv6d425z5Du+awtzbx1a+6fPtDM09TLas7I8e8urq2py6nY5t214+ZteMk7NJwXOH3j3/ACWORc1WrYu2I6tduZJDuSMtjZ3vfjuC4bLKzYs7p9Zl3OONevX2x6Yw59M0+fVLIgjJZE3DrEo37Nh7h3cx7vn3Kwq9eCrDDBAwMiiYGMaPAeJ8fFcOn0K2nV2V4QTvzSPdjmlkPV7sd67i7Pp+jGthzP1T5cZ1Ddy2s+I+mPH/AFClEWzhrRSoRAUqEQEXUt6lpWnjmvX6dUYyPWrEUWR5c5BWJPGnBLTynXaBOcbPcR82twg2JQsdS1vQtSIbQ1OjZeRnkhsRukx5x55/osigIiICIiAiIgIiICIiCVCIgIiIClQiAiIgIiICIiAiIghapxZWfmncA9hrTWkP3SSXNJx3Hf8AgrbFxTQw2I5IZmNfHIC17XdCFibevGxVNc+7J1L517otj2VepWa1Lh67Tc+Ss11ituRybyxjrhze/wCH+awn7u7cH4g7rhb6LKMu2yOJd5RfXfj3VzzB5jY+I6hZSnrur08NE3bRD+jsZePcH/aHzWLRRVbbVPdXlwm2mq6O2zHlutPijTpuVtlr6zztzH8ZFn89u4+LQs5FLFM0SRPZIwjZ0bg4H4hVcuWCzZqPD680kTif6NxHMfAgdfkt1r9azw+W6Ofw0mx0TDL1qnj8rQyixGiz67PFz6jFEyMtzE7BbO/JG72DYD6rLLp6rYtxjOPdzFtc15ThPslERerzEREHWuVxbq2qxc5gnidHzNJBaT0Iwq1ljkhklhkHLJE90b2+DmnB/wAlaeAtR4pockkWoRM9l+IrGB0ePsPPv6H3BaHrOrNlcWx5xb3o218Kyap8Zfu1hbBwvbhitTVnhodaa0xPwOYuj6sJ8+vwWvr6Y98T45I3cskbmvY7wc05BXNa1802xZHs6bZoi+ma591pYUrp6dcjv1K9lnV7cSNzuyRvsuafcchdxfQMMozxjKPEvn2WM4ZTjl5gREV1RSoWP1nVqOiada1K64iKu32WNI7SaU7MijB/Kcf8egyAjV9Z0rQ6j7uo2GwxNyGNHtSzPxkRwsG5d/B2GRUOvekXiHVHSQ6c52l0skNEDs3ZGjvfOPs58G4/OPVa5rmualr96S/fk9rJZXgaT2NaLujjafqe/wCgxgVVuEvLpHukkc6SR5y6SQlz3E97nOJP1UbIpUJfON2kZyDlpbsWnxBC3Th30ga7o74oL8kuo6aMNcyZ/PahaNuaCZ25x91xPkQtNUKR6a0/UaGqVK1+jO2erYYHxyM+rXA7gjvBXbVB8GcUy8OXwyd5OkXZGi6zciB5w0WmDxGwf4jzAV9MeyRrHxua5j2texzCC1zXDIII7j3KVH0iIpBERAREQEREEqFKhAREQFKhSghERAREQEREBERAREQQsfd0jTbwJnhaJT/SxYZL8XDr8VkUXnnXhZHbnHML4Z5V5d2E8S0m7wxfh5n1HCzGNww4ZMPLf2T8x7lgnskikMcrHskGcse1zXAjyKtNda1RpXGGOzBHK3+uNx7nDdaPZ6LXl81U8T+jea3WrMPlujmP1V5TpXdQkMdSLnIIEkh2hj/Pf4+Q3W5aXoNPTy2V+Z7eN5XgcrPKJncPPc+a+9R1PQOGqLZrksVau0FkEUYBkmcB9iGNu5Pj4dSQNxUXEvHuta52tWp2mn6Y7LTFE/FmdvT8fK3fB72t+Z6rJ0+l168d2XrLH3Op27Hy4+mP88t64l9Iek6N21TTOz1DUWZDy1+adYjr2sjDkkfdb8SFsPC9m/d0HRrt+Uy27dVtqZ5a1mTK5zwA1gAAAwBsvOEm0cmNvZLQBgddsYC9OaXB6rpulVsY9Xo1ICPAsia1baGpl3ERFKBF05NS0+PUa2lOmHr9itLbZCMkiCJwaXux0BJwPHB8FjdT12TTLoryVhLC6JkrXseWvGSWkYcCD08l43X4UY99k8Q9aac7suyuOZZ5de3Wit17FeUexKwtPke5w93VY6txFo0+A6Z0Lj0E7C0Z/Oblv1WVjkimbzxyMkYejo3NcPm1VxuqujtxnnlOdVtM85RxwrOxBLWnmryjEkL3Mf4bH7Q9/ULiW1cU6eSI9QjH2eWGzgd35Dz7uh+C1VcPua86904T/j8O50tmNmmM/wDf5Z/hm/6tbNN5/FWz7Hg2Zo2HxH7B4rdlVjS5pa5ri1zSHNcOrXDcEKxNKvN1ClBPkdpy8kzc/Zlbs4fv+K3/AEba7sZpy9vDQda1e3OLsfE+XfRPFF0Lnw9FS/pM1p9zV4tIif8AzbSmtfK0H2X3Jm8xJx1LWkNHgS5XQe5eaNXsPtavrdl5y6fUrrz/ANVwAUSmHRHx+K5qtW3etVaVOF01u1KIa8TTgucd9ydgB1J7gOq4ltno7nqwcWUPWC0GercrVnOxgWHtDgAT3kBwHv8ANQs3DSfRXpEcDH61asW7TgC+Os8wVoz15W4HOfeSPcuTU/RZoM0TjpVi1SsDJZ20hs13HHR7X+2PeHKxB70+KlR5l1LTdR0m5PQ1CHsbUJHM3OWvY7PK+N3Qtd3FdaKKaaSGGGOSWaZ/ZwxQsc+WR/3WMbuSr3414U/lJTrmr2EeqVJWerTTEtjdC9wEsUpYC7lx7Q26ju5t+bhng/SeG4g+MCzqT2cli/M0CRw68kTckNb5A795ONnC3LWOFPRvFD2Oo8RsZLPtJDpuQ+CE9QbJGz3eXT352strWtDQ0ANaAGgDAA7gANl9IpVET4ogIsTqvEXDuig/hLUYIZMczYA4yWHDGdoYwX/HC0+36V9FjOKOmX7OPyp3xVWH3bvd+qP8QsZFVB9LVnm9nQYQ3wN95d8xD+5d2r6WNMe4C9o9yBm2X1p4rOD4lrxGf2oLKRYXSOKOGtc5W6dqET5yMmtMTDaA7/xUmHHHlkLNfFART8VCAiJ8UBE+KhzmNY97nNaxoLnOcQGtA3JJKCUWp6l6QODdOc6MXX3ZmnDo9NZ24H/NJEP661uf0tQguFbQpXN35XWbjIz+jHG/+8gtBFVMfpbnz+N0BhH/AMd9wP60BWaoelDheyWMuRXaDnHd8sYmgb73wEu/UCDfEXXp3aF+FtmlagswP+zJXkbIw+WWnqux8UBFPxUICJ8U+KAixOo8R8NaQ4t1HVKkEg6wmTnn/wCjFzP/AFViD6ReBQcfhGY+YpXcfWNBtqLUD6RuBAHH8ITbAn/Urm3/APmtprWIrVatahLjDZhisRFzS1xZK0PaS07g4KgVD6VZw/WtJr5B9X0wyHydNM8Y+TQq+W2ekKft+LNUAOW1oaVZvliEPI+ZK1RRK8OalD61e0qrjPrOoUq+PHtJmtwvTw/eV534Pg9Z4q4YjxnkveskeHq8T5s/DC9EDuUwrItd4q4npcNUe2fyS3rAcyhVzjtJB1fJjcMb+Ufh1K7fEGu6dw9p8t62eZ28dWu1wEtmcj2Y2fvONhv7/P8Aquq6hrV+zqN6TnnmIDQ3aOCIZ5YoWk7NH789ShEcs/wnq96xxvpWoXp3S2NQmsVrEjsDm7aEtYwDoGjADQOisvi2L2tNn8RNC74YeP3qkKFn1PUNLt5I9Vv07JIPQMmaXfTKv3iiMS6YyVv9HYhkB/qvBYT9Vr+o1/E1s4Z/TrPh7WE/+tJX3HJLC7nikfG770TnMd+qV8ZB3GD7kXDRlPmJd1OMfTlDJt1zVTFJXnlZYgkYY3ssMGS07fbbh2fBYxEV7LbLOO+Znj7vOumurn4cRHP2Fm+G73qt71dxxDc9j82Zoy0/HcLCrlqc/rVHk+2bVcN/6jcr01bJquxyx+6m1XFtOWOX2Wd4qVA7l9L6FD54g93wXmzX6j6Gua9UeCOx1CyW7EZjkeZGH5EL0mqp9KHD8gkr8RVmZYWx1NSxn2CPZhnd5bhh/wCHxSUwrBSC5rmOa5zXsc17HsJa9j2nLXNI7wd1H8efxUqqy8eCOL4tfqto3XsZrNWLMw2aLcTdvWIx4/fHcfI7bnsvL9exaqWILdSZ8Fmu8SwTRnD2PHQjbp3HbcbYOVevCHF1XiSr2cvZw6tWYPW67dmyNGG+sQAknkPeM7HY+LrQrMNrRAUUoERde7dp6fUtXrkoirVonSzPPc0dwHUk7ADvJx3oIvXqGnVZ7t6xHBVhbmSWU4aMnAAA3JPcAMlVBxF6SNW1B0lbRTJp9Hdvb7euzjPUOH2Ae7G/mM4GB4n4o1Dia52kvNFQge71GmD7MTegfJjYyEdT3ZwPE4H95VeVuBxc9z3vLnPeS57nEuc8nfLnHcnzUboSBkkgAdSdh8136Oja/qY5tP0q/ZZt+Mjgc2Lf/wCR+G/VEughWdfwdxvG0vdoF4gbnszDI79FjyVhZY54JHQ2IZoJm7uisRvjkHva8ApwPkEgtc0lrmkOaWktc0jcFrhvlWLwp6RbVWSDT+IZTNUcQyLUHbz187AWSPtM8+o8wNq58U6/5/4IS9RscxzGOY5rmOaHMc0gtc07hwI7ivpVZ6M+JXuLuG7shPKx82kvecuDGe0+rk9wGXM8g4dwCtMKygmR4otQ404tj4cqtr1SyTWLjHGqxw5m1488psSt+jB3nyBUDs8T8X6Rw1F2b/5zqUjOaClE7DsHYPnfghrPfue4HuprW+J+IOIJHG/acK3MTHSrkx1IxnYFgOXEeLifgsTPNYszTWbEsk1id5lmllcXPkeernOP8eXh8KOVohH8beXkikBz3tiY175XnDY42ufI4+TGgn6LMwcJ8Z2WNkh0HUOVwBBmbHBkHvxM4FEsKm6y1rhriui0yWtE1GOMZ5nsi7ZjR4kwlyxIIPQ9+Pj4YQd3TdW1bRrLbemW5K0oI5ww5ilaDnlljPskfD3YV18I8Z0uJIzXlYytqsLOaasDmOZg2MtcncjxHUefU0P4LmqWrdC1Vu1JTFbqyNmryN6tePHuIPRw7wU5Rw9PjyRYfhvXK/EOkU9SiAZI8GK3C057CzHs+P3d7fIjxWYVlXy97I2ve9zWsY1z3uecNa1oyXOJ2ACp3iv0hXr8k9DQZ5K2nNLo33I8ttW993RO+0xnhjBPlnCzfpQ12StWqaDWeQ++z1m+WnB9Va7lZFn+u4HPkzHRyqNRytEG5JP5TiS495J7yU+CL57SL/3GfpBQlLmueBGwZdI5sTfe8hg/avUNeFleCtXb9iGGKFv5rGhgXm3QomW9c4frAteJtV09rwCD+LEzXuPyBXpWR7Y2Pkd9ljXPPuaC5SrLzlxLYFriLiOcZIdqdpjSfuxu7IfsWJX3LKZprEx6zzTTE+Je9z/3r4ULNz9Glft+K45e6npl2c+ReWVx/eKuPVtW07RaFjUb8vZ14BvgAySPP2Yo297ndw+OwCqn0ZS06MnFur3ZmQVaNGnFLLJ9lglkfIRtuSeUYA65A71r/FPE1ziW92rg+KhXLm0Krsfi2H+klA27R3U+HTzM8o45dbX9e1HiLUJL1z2I280dSs1xdHVh+43xd993efAAAYlR/H8eS2jhHhGzxNaMkwfFo1Z4FuduWuneMH1eE+P3j3Z8VCfDl4M4Pm4ksC3bD49DrvxK8Za69I0/6CI/dH5bvgN923qGANa0NAa1oaG9wAGAAuOtWq1IK9WtFHDXgjbFDFEMMYxuwAC5x3KeFWNs6JpFrJfVja859uEdm/J7/YWGs8JHc07Z/MsNzn/jbv8ARbWiw7tGi768WXTvX0/RlKurGjaxVz2lSRzBsH1/xrf1fa+ix/fy9HfdOzvkd1amF156On2f9YqwSnxfG0n5kZWot6Hj/ay4/Lb1ddy/u48/hWZIb1IGegPf7gtk4d0ed08d+1G5kUWXVo5Bh73kYEjgdwBvhbJBpel1iHQU67HN6ObG3mH/ABHddwDC9dTpHwc4ssy54eW31ibsJrrx45ThERb9oRcViCvagnrWImSwTxvhmikGWSRvHK5rh5rlRB584t4Zs8NagYwHyabac5+nTkZ9kbmCR332/UbrXV6W1XStP1mjZ0+/F2leduDjAfG8fZkjd3OHUH9xwqC4i4d1Lhu86paBkgk5n0rbW4jsxDffuDx+UPjuDkwtEsMuenbuafarXaUz4LVaQSQys6tPQhw6Fp6OHQhcGUUJegOE+KafEtIuwyHUawa29VB6E7CWHO5jd3eHQ+J2VeZtM1O/o9+rqVF/LYrPzjJ5ZYz9uKQDq13Q/A9RleidH1WnrWnUdSqH8TaiD+UkF0bx7L43+bTkH3eamFZhkM+9Uz6SeInX9Q/AdZ/8y0x4NrlJxNexu13lGNveT4DFp69qbdH0bV9TOCalaR8QIzzTu/FxNI83ED4rze58kj3ySOL5JHukkeftPe8lznE+Z3+KSRD5wdlzVatu9ZrUqcL57Vl/ZwxM6uO5JOegHUnwXCSMHPTBJ9yuf0ccNx6dpzNZtRA6jqkQfGXj2q9I7sjGe92znfAfkqFpcnDPo80nS2Q2tWZFqGp/axI0up1ndeWGJ3Uj7zh3dy3gNDQAAAAAAB0AG2AOilSrKIwFjdX0PRtcrmtqVWOZu/ZyfZnhdjAfFKPaBHvWTQoPO/E/Dd3hrUPVZSZqs4dJQs8oAmjB3Y8DYPbsHDzB79sEr8480qPU+G9TPKDY09h1Gs7bLTAOaQeOC3mHy8FQefBVWiXNVuWNPtU79cls9KeK1GQepjcHEHyIyCvTNSxFbq1LcW8VmCGxH0+xI0PHT3rzB5K/uA53WOEuHHuJyyq+DfwhlfEPoAphEszqupVNI06/qVonsKcLpXAEB0jujY2573HAHvXnTUtRu6tfuajcfzWLUhkdgktY3oyJmfyWjYf5qx/Stqzh+CdEjfhrgdSuAHqATFA047s85+A8FViiUwLY+FuEtS4nsOcxxraZBIG2rjmhxJxnsa7TsXnvzs3O+/suxWkaZZ1nVNP0usS2S5LyPk3PYwsHNJJ8ADj4L0Zp2n0dKpU9PoxNiq1YxHEweHUuce9xOS495PmkQTLp6Nw5oOgwiLTacUb8fjJ3jnsynvMkrva+HTyWWwpRWVRjw/j5LS+L+BtP1uCe5p8UVfWWNL2vYAyO5gZ7KdoGMnudjIPkt1QoPLbmvY+RkjXMkje6ORj/ALbHsJa5rvMHqo/jdbl6RtNZp/Eks8TQ2LVK7L2G9O2BMUnxJAcfzlpqqvCwfRbqj62r39Je89jqNY2YWk7CxW64H9Zuc/mhXIF514SndX4p4XkacF2ox1yf6throXD6r0UO74KYVny8/wDHdo2+K9edklsMsFNgzsGwwsaQPiXfNa0u7q9j1vVtatZz6xqV+YeGHzvIx8F0lCzbeBOG6fEWqWjey+jpsUU0sIJAsTSOIjY8j8kYJI71dUekaJExscWm6eyNo5WtbVgDQPdyrQvRLBjT+IbWP9NqMVcHxEEIO36SstTwrLqs0/TY3skjpVGSMPM17IIWuacYy0huV1eIbHquha/Y6dlpl1wP9bsnALKLVPSDY7DhLWxnDrArVW/82ZjT9MqUKEaMNaPBrR9ApTOfqiqu5hZtCs+mJXirJYbafCCOR0zGGNr3bb4HTPiuH+MfVMog2LhTha5xPdLAXxaXWe0X7Q2OevYQE7GQ/Qb+AN9UqVOhVrUqULIateMRwxR/ZY0eZ3ye8nc/FaD6M+Ia1ij/ACflZFFboNdLWLGhnrddzsucR99pPt+IIPcVY4UwrKFKIpQIiICIiAowpRAREQNlOy+Sf4/wRr2vBLXNIDnNPKQcOacEHHeOhQSsfrGj6ZrdGehqEXPDJu1wwJIZB9mSJxGzh/luDg5BEHnDiDQdQ4d1CShbHOxwdJTshuI7MGT7Q64cOjhnY+RWKXoXivQK/EOkWqpaPW4WusafLj2o7LBkAHwd9l3v8QvPAzgbY8j3KsrQnCs70UalIJda0d5zGWx6lWBP2SSIZcDz9kqsVuvox5v5Uux0/BNzm93aRYRMtw9KlsxaHp1RpwbupRucM4zHXjdJ0/O5FTasz0tWQbXDlTvigu2XD/evijaf1SqySUQ7FCp6/qGlUME+u3qlU4ODyySAO392V6bY1kbWMYA1jGhjQOga0YAXm7QJ2Vte4csPwGQ6tSc8noGmQNz9V6S7/mpglOybIilU2TZEQdDWnMZo+uOfjkbpl9z/AM0QPJXmhv2W+OBn5K9PSLqzNO4ds1WuxZ1ZwpQgHfssh0zseHL7PveFRngqrQefgr79H0TouEOHgRu6GeX4STyOCoNwe4ckYLpJC2KNrftF7yGtAXpjSaLdN0zStPbjFOnXrnHQujYGuPxOSpglRfHFs3OKtffn2YJ46bB4CvE2MgfHmPxWurJ8Rk/yi4m5uv4Z1LP9oesWoTCx/RPSZJf1/UXNbmrBWpQk7kGdzpH4+DQFb2yqv0STx44mrEgSdrRstB6lhY+Mn54VqKYVk2TZEUoNkREFVeluNgfwvLtzubqcecfktMDh+0qsArJ9LM3Nc4cr98VW9MR/vZI2D+6VWqrK0MxwvGZeJ+FmAZP4VrSY8oyXn9i9C3LAq071okAVqs85z4RRl/7lRno+g7fi7SCRkVob9o+REJjB+bgrc4xsGrwvxLKDjOnzQD/n4g/7lMIny88tJIaT1IyfeiYxsoccNeT3NcfoSoWXj6MoDFwpVkIx63cvWR5gydkD+qt12WA4Ormrwvw1CW4P4NrzEecwM3/cs+rKC0D0qThmg6fXB3s6rCceLYYpJD+5b+qq9LVjMnDNQHo3ULTh7+yiaf7yJhV+FDjhrz4NcfkCvpQWvkxG0ZdK5kTffI4M/eqrNg1/huzotTh2+C99TVdOqSve7fsbzoRJJCSO49WbeI7t9f6r0hqOjUdU0eTSLIxA+vFCxzQOeGSNo7ORme9pAI+XevPOo6fc0m9c064zls1ZDG/Yhr29WSMz+S4YI9/kiIl8VLdvT7dS9TlMdqrK2aF46Bw6h39U9HDvBXoXhzXqnEOl1tQgDWyH8Vcg5sur2Wgc8Z78d7fEEeK859VsPCPEkvDWqMncXu061yQalGMk9nnDZmj7zOvmMjvGJgmHoTZNlxwywzxRTQvbJDNGyWKRhDmPY8BzXNI7iOi5FKpsmyIgbJsiIGybIiBsmyIgo3X/AEh8Q6v2lekTplF2Ry13k2pG9MyTjBA8m48MlbD6LNdZ2d7h+xJiRr5L2nc5+2x3+nibnvB9rH9Yn8lVWuWCezUsV7VaZ8NivI2WGaM+2x7ehGdj5jv6KvK8w9QZUqttF9KGlSQxxa5DLVtjDXz1ozNVlI/K5WEyNJ8MH3rJ2/SZwZAxzoJ7VyTlPKyvWlZl3cC6cNAU8q8Nq1G/V0uld1C08Nr1IXTSb7nH2Wt83HAHmV5mLi4ueQAXuLyB0BcSVsnE/F+q8TSNjlaK2nRPL4aUTi7md0Elh+3M4DpsAPqdaULQlWV6JqTnWuINUIHJFHX06I9cuc7t5AD5ezn3qtAJHuZHGxz5ZXtihYwZc+R55WtaBvk7Y/yXofhXRBw/odDT3YNjldYuubuH2pcOkwR3DZo8mqYRKrvSdY7bicRd1TTqkJ973STn+8FpS2DjWwbPFXEUmdmW21h5CvGyDHzC15QmAjY4JB2wR1BG4I9y9A8HcQwcQaRXlL2+v1Wx19Ri6ObK0YEgBOeV4GWn/Befl39K1bVNFtx3tNnMM7AWOBHNFLGSMxys6FpwPdjOyEw9LKVXmkelDQbLI2atDNQsYAc+Nj56rj4tLPxg+LT71nzxxwPy8/4bqY8MTc36PJzfRTypw2NdXUNQo6ZUsXr0zIasDS6SR5x7mtHUuPQADdaTqfpQ4drte3TIbOoT4IYeR1avnxc+Udp8mKstd4j1viKds2ozgxxkmvWhBZWgz3sZkknuJJJTlPDk4n4gscSapJde10VaJpgoV3YzDACTl+Nud3V3yz7KwafNc1Wpbv2qtKnE6a3akEVeJvVzjuST3AdXHuAyoW8No9H2hu1fX4LUjM0tHLLsxIBa6z0gj378guP5vmr3WF4Z0Ctw7pVbT4yJJjme7OBgz2XgczvcNg3yA+OaVlZl5+46pupcVa4zGGWZYr0ZxjmbYjDnH9LmHwWuK2vSlor56tHXYGZdR/ml3lGSK0rsskPk1xwfz/JVJlVWhn+Eddbw/rlW5K4ilMDUvhoJ5YJCCJMD7hw4/Feg2SskbG+NzXxyND2PYQWuY4cwc0jYgry7/wDY9623hjjnVeHmspys9d0pp9iB7+Wavk5Pq8h2x19k/DCmETC+UWoUvSJwVbaC+8+pJtmO7BKwjb7zA5n6y5rHHvBEDC86vFKQNmVop5XuPgOVmPmQnKOG0E4Gy6o1Cibx00StN1tY25IW7ujg5xGHv7hknbx+CrDW/SlYmZJBoFR0HMCPXLoaZWjvMUDctz4Ek+5cnorbZtXOLNTsyyTTSeowPllcXySPd2kjy5x3zsEOGF9JtjtuJ+yztU02pDjwc8vnP94LScrYONJzZ4q4jkzkMttrD/8AnjZDj6LX1C0LA9FMHPrusWSMivpTYgfB087T/wBpW4ekywYeFrMecetXaNc+eHmcj9VYT0SVyK/EtvA/GWaVZp7/AMTE+Qj9cLm9LM/LQ0Crn/TXp5yPEQRcuf11KvuqVfEgLmOaOrvYb5ud0H7F9LuaVX9b1fQqvX1jVKEJHk6doP0yoWekqUAq1KVYf+nrQQD/AJcbWfuXYUIrKCpX0o2BLxHXgB2qaXXYR3B8sssh+nKrqXn7jqx6zxZxA8H2Ypq9YD/cV42H65USmGuLv6HA61rnD1cAHtdVohwPe1sokP7Fj1s3Adc2OLtB6Ftf1yy7yEcDgD8yoWlf/X5rQfSNwz+E6I1inGDqGnRntg0e1YpjLnN272buHllb8FBVlHlsEEAjodx7k8Ft/HfDP4B1P1mrHy6VqT3yV+UezXsbukr+Q/KZ5ZH5K1AfNVXiVm+jXigxOZw3ekJY8udpEj3Z5XbudVJPd3s+I8FbAK8ttc9jmPY9zHxuZIx7CQ9j2nLXtI7wcFX1wXxOziLTG9u5jdUpBsN+MdXnHs2Gj7r/AKHI98wrMNqUqEUoSoREEqERBKKEQeWkW38RcA6/or5JqkcupadkubNXbzWYm9cTwt3yPFoI8h0Wn8zcuaXAOBIIOxBHcQd1VflKJlQXsHV4HvI/eglCQAXHoP4AHmstpPDfEmuOb+DtOndESM2bDTBUaO8mWQDOPAAnyVr8Mej3TNFfDe1CRt/VI8OjcW4q1n9cwxu6uHc4/ABOEcsT6P8AguWq+LX9YhLLPLzaZUlbh9drtu3nB/LIPsjuznqfZs3b54U4yNwupqMxrUNSs5x6vTtT58Ozic7b5KyrzfqU/rep6vazn1m/dnye/tJXkLqqG55Wk9SAT7zupVVzfZFZ1L0eUNX4X4fuV5fU9XmoMnfI7L69ntnGVvbx9c4IAcMefMtL1XhXirRnO9d02d0QO1mm02a5HjzRDmH/ABNCcHLC/v3PvRfHaR9OYA9CCQD8Qd1Jki++39IIPpT/AAe9ctSpqGoP7KhTt25Pu1IJJfiS0EfVbvo3ox4guuZJq8jNMrE5MTHNnuuHgOQmJufMkjwQaVSpX9RtRUaFeSzbl+xDEASBnBc9x2DR3knAV3cG8G1uG4XWbDmWNYsMDbE7QeSFh37CvkZ5fE7E/QZrReH9E0Cua+mVWxc28szvbsTO65lkd7R93TyWV+CnhWZB0REUocViCvZgnr2I2ywTxvimjeMtfG8crmkKgeK+F7fDV4tw+TS7Dz6hZO4wf6CV3Tnb9RuOhA9BrrXKVLUK89S5BFPWmbyyxStDmOGf2juUJiXmLJUqxtf9GGoQOkscPyi1ASXepWXtZZj/AKscz8McPeQfMrQLlLUtOkMWoU7dSQZ2tQviB3xlriOUjzBULOBF89pGej2/pBQZYvvg+QIz9EH2rj9FFcM0LUrJ62dXmA/MhijYN/mqz0zhninVyz1HSrTo3YPb2GGtXx3ntJsA/wDCCrn0DSLvDfCvqMnLPdr19QsPFMPeJJ5DJK1kQcA49wGwUolRmoz+talq1n/9i/cmz4h8ziCup4LJDh3i3A//AB/W89T/ADCx37/dU/yd4s/2e1v+wWP/ABUJ5Wz6Lq/ZcMGUj/W9TvTg+IbyV/8AsWselifm1TQq2doqE0x8jNNyf9qsDg2lPp3DGgVJ4nxTsrOkmjlaWSMkmkfM4ODt85duq49IGmcQ6jxLZlqaPqtmtBUqV45q9OaSJxDS93K5oxsTgqVfdoK2Lgev6zxbw6wjaKexad5CCu94+uF0P5O8W/7P63/YLH/itx9HOha1W4hkt6hpd+pFX02yI5LdaWFrpZZImBrXPA3xzFQmVwonwRWVF5p1mx63rGuWs/6xqd+Ufmundy/TC9I2JHw17MrI3yPihlkYyNpc97msLg1rRuSegXnEcPcXEAu4f1wuO5PqFjck5OfZUSmGN7lvfotr9rxFesHpU0qQD86aZrf2ArV/5O8W/wCz2t/2Cx/grH9F+j6pQfxFZ1CjcqPl9RghbcgfC57GB73FoeBtkhRCZlZaIisqxmuaPT13TLmmWhhkzMxyAAugmbuyVme8H5jI7152v0bumXLlC4wx2qkropW9zsbh7D3tcMEe9enFX/pE4Wl1WtFq2m13SalTaI5oYWF0tuqTjla1vV7M5HlnwAUSmFNLJaJrN3QdTq6nUy50WWTxZIbYruPtxO+hHmAe7af5O8W/7Pa3/YLH/in8neLf9ntb/sNj/wAVCz0Npuo09VpVL9KTnrWoxJGdsjuLXjuLTkO8wu4qk9H9jinRLh03UNG1pmlX5QQ+WjYEdO07YSc3LgMd0f4HB8VbasoIiICIiAiIgLH3dE0DUSXX9LoWXEYL568T5Mfnkc31WQUoNaPA3AxJP4Cpdc7CUD5B+F3qvDfC9FwfU0bTIntILXtqwmQEeD3Au+qyyIIHRSiIC17jSwa3C3EkveaL4Rjxnc2H962FaT6TZ+y4Xljz/rV6lAfcHGY/3UIUh028Nl8PzySfmO/YuRc1Cv63f0uqf/VX6Nb/AKs7Gqq70lplb1PTdKqYx6rRqV8f7qJrP3LuJ/8ASKyjp2NL0e24utadQncerrFaCUn4vaSuFmgcNRkOj0bSWEbgto1QQfeGLJIg+WMjja1kbGsY3o1gDWj3AbL6REBERBKhSoQEREBfL2RyMcyRjHsds5r2hzT7wdl9KUGLfoHDUh5pNF0l7s5JfRqk595YueDS9GqEOq6dQgcOhr1YIj82NBXcRATwREBERAREQEREBERAREQSoUqEBERAREQEREBERAREQEREBERARFKCERSghERAVY+lu0xlPh6qXgGW3Zslp8IYgwE/pKzl8lrDklrSQRjIBxnwQeWe1i/9xnzWe4Nijt8VcNRAtdy3vWDju7CKSYfUL0T2cf3GfohRyMGSGtBBbggDO+FCeX0iIpQIiICIiAiIgIpUICIiAiKUEIiICIiAiIgIiICIiAiIgIiICKVCAiIgIiICIiAiIgIiICIiAiIg/9k=;" vertex="1" parent="1">
          <mxGeometry x="340" y="260" width="110.51" height="60" as="geometry" />
        </mxCell>
        <mxCell id="x2dVQQzCQsfYvZ4flrbW-50" style="edgeStyle=orthogonalEdgeStyle;rounded=0;orthogonalLoop=1;jettySize=auto;html=1;entryX=0.5;entryY=0;entryDx=0;entryDy=0;fontFamily=Helvetica;fontSize=12;fontColor=default;" edge="1" parent="1" source="x2dVQQzCQsfYvZ4flrbW-39" target="x2dVQQzCQsfYvZ4flrbW-42">
          <mxGeometry relative="1" as="geometry" />
        </mxCell>
        <mxCell id="x2dVQQzCQsfYvZ4flrbW-39" value="" style="shape=image;imageAspect=0;aspect=fixed;verticalLabelPosition=bottom;verticalAlign=top;strokeColor=default;fontFamily=Helvetica;fontSize=12;fontColor=default;fillColor=default;html=1;image=https://th.bing.com/th/id/OIP.Zg5iaVHIYyrS6oBmBRFmSwHaCi?w=342&amp;h=119&amp;c=7&amp;r=0&amp;o=5&amp;dpr=1.3&amp;pid=1.7;" vertex="1" parent="1">
          <mxGeometry x="205" y="360" width="115.32" height="40" as="geometry" />
        </mxCell>
        <mxCell id="x2dVQQzCQsfYvZ4flrbW-42" value="" style="shape=image;imageAspect=0;aspect=fixed;verticalLabelPosition=bottom;verticalAlign=top;strokeColor=default;fontFamily=Helvetica;fontSize=12;fontColor=default;fillColor=default;html=1;image=https://th.bing.com/th/id/OIP.bQLV3m2t29a0dfG9qnVMgwHaHa?w=203&amp;h=203&amp;c=7&amp;r=0&amp;o=5&amp;dpr=1.3&amp;pid=1.7;" vertex="1" parent="1">
          <mxGeometry x="241.97" y="440" width="41.37" height="41.37" as="geometry" />
        </mxCell>
        <mxCell id="x2dVQQzCQsfYvZ4flrbW-46" value="" style="endArrow=classic;html=1;rounded=0;fontFamily=Helvetica;fontSize=12;fontColor=default;entryX=0.5;entryY=1;entryDx=0;entryDy=0;" edge="1" parent="1" source="x2dVQQzCQsfYvZ4flrbW-8" target="x2dVQQzCQsfYvZ4flrbW-10">
          <mxGeometry relative="1" as="geometry">
            <mxPoint x="230" y="550" as="sourcePoint" />
            <mxPoint x="380" y="550" as="targetPoint" />
          </mxGeometry>
        </mxCell>
        <mxCell id="x2dVQQzCQsfYvZ4flrbW-47" value="Processing" style="edgeLabel;resizable=0;html=1;align=center;verticalAlign=middle;strokeColor=default;fontFamily=Helvetica;fontSize=12;fontColor=default;fillColor=default;" connectable="0" vertex="1" parent="x2dVQQzCQsfYvZ4flrbW-46">
          <mxGeometry relative="1" as="geometry" />
        </mxCell>
        <mxCell id="x2dVQQzCQsfYvZ4flrbW-48" value="Source" style="edgeLabel;resizable=0;html=1;align=left;verticalAlign=bottom;strokeColor=default;fontFamily=Helvetica;fontSize=12;fontColor=default;fillColor=default;" connectable="0" vertex="1" parent="x2dVQQzCQsfYvZ4flrbW-46">
          <mxGeometry x="-1" relative="1" as="geometry" />
        </mxCell>
        <mxCell id="x2dVQQzCQsfYvZ4flrbW-56" value="" style="endArrow=classic;startArrow=classic;html=1;rounded=0;fontFamily=Helvetica;fontSize=12;fontColor=default;entryX=0;entryY=0.5;entryDx=0;entryDy=0;" edge="1" parent="1" target="x2dVQQzCQsfYvZ4flrbW-39">
          <mxGeometry width="50" height="50" relative="1" as="geometry">
            <mxPoint x="150" y="380" as="sourcePoint" />
            <mxPoint x="200" y="380" as="targetPoint" />
            <Array as="points">
              <mxPoint x="190" y="380" />
            </Array>
          </mxGeometry>
        </mxCell>
        <mxCell id="x2dVQQzCQsfYvZ4flrbW-57" value="" style="shape=image;imageAspect=0;aspect=fixed;verticalLabelPosition=bottom;verticalAlign=top;strokeColor=default;fontFamily=Helvetica;fontSize=12;fontColor=default;fillColor=default;html=1;image=https://th.bing.com/th/id/OIP.Ve40dcVFa4hFPBLqVp6ZbwHaHa?w=168&amp;h=180&amp;c=7&amp;r=0&amp;o=5&amp;dpr=1.3&amp;pid=1.7;" vertex="1" parent="1">
          <mxGeometry x="230" y="240" width="37.26" height="40" as="geometry" />
        </mxCell>
        <mxCell id="x2dVQQzCQsfYvZ4flrbW-58" value="" style="shape=image;imageAspect=0;aspect=fixed;verticalLabelPosition=bottom;verticalAlign=top;strokeColor=default;fontFamily=Helvetica;fontSize=12;fontColor=default;fillColor=default;html=1;image=data:image/jpeg,/9j/4AAQSkZJRgABAQAAAQABAAD/2wBDAAsJCQcJCQcJCQkJCwkJCQkJCQsJCwsMCwsLDA0QDBEODQ4MEhkSJRodJR0ZHxwpKRYlNzU2GioyPi0pMBk7IRP/2wBDAQcICAsJCxULCxUsHRkdLCwsLCwsLCwsLCwsLCwsLCwsLCwsLCwsLCwsLCwsLCwsLCwsLCwsLCwsLCwsLCwsLCz/wAARCAELAQsDASIAAhEBAxEB/8QAHAABAAMBAAMBAAAAAAAAAAAAAAYHCAUBAwQC/8QAURAAAQMDAQMFCwgHBgQFBQAAAQIDBAAFEQYSIUEHEzFRYRQXIjJSVXGBkZLTFiNCVpShsbQVNWJydYLSMzZDk6LBJDRzwiVFU2OyRFRk0fH/xAAUAQEAAAAAAAAAAAAAAAAAAAAA/8QAFBEBAAAAAAAAAAAAAAAAAAAAAP/aAAwDAQACEQMRAD8AtulKUClKUClKUClKUClfla220rW4tKEISVrWshKUJSMlSlHcAKgF/wCVHTtsLjFsSq6S05TtMq5uEhXRvewSrr8FJB8oUFg1wrrq3SllK0T7rGQ8nIMdkl+QCOCmmQpQ9eKou9a51dfNtD89ceKrI7lgZjs7J+iopO2ofvKNRiguW48sFtRtJtdpkvneA7OdRHSD1htrbJH8wqLTOVXW0knudcGEOHc0ZK1Y7TJLn4CoHSg7kvVusJwUmVep60K8ZCXS22fShrZT91cRSlLJUolSickk5JPaa+222i8Xd7ue2QZEt0Y2gwgqS2D0FxfipHaSKnVu5I9RyEoXcJsKCFAHYRtSn0nqUEbLfscNBW9K8kYJHUSKmOmNCTNU2yZPiXCOw7HmKiBiQ05sLw025tF1BJHjYxsHo7aCNwrverccwLhMin/8d9xv27JqQROUbXkXZH6U59Ax4EtiO7n0r2Av/VXzXjQ+r7Ilbsq3rejIBKpME90MgDpUrYG2kdqkio1QWnA5YbikpFzs8V4bgVwnXI6h27DvOA+0VMbZylaKuOwhyU7AdVgBFxb2EZ/6zZU3j0qFZ7pQazZfjyWkPR3mnmVjKHWFpcbUOtK0Ej769tZVtt3vNod562zpMVzIKuYcUlK8cHEeIR2EGrHsfK5KbLbGoIYfRuBmQAG3vS4wo7B7cFPoNBcdK51qvdkvbHdFrmsyWxjbCCQ62TwdaVhYPpFdGgUpSgUpSgUpSgUpSgUpSgUpSgUpXhSkoSpSiAlIKlFRAAAGSSTuoPNRbU+t7DplKmnVGVcikKRBjqAWMjIL6yCEA7uBO/cDwhusuU3ZL9s006k7i3IuaRnf0KTDB9m37OCqqRbjjq1uOLUtxxSlrWslS1qUclSlHeSeNBINQ6w1FqRxQmyebhhQLcKNtIjJx0FSc5Ue1RPZjoqO1JNN6M1BqVYVFa5mCFbLs6SFJYGDghvAypQ6h6yM5q6dO6E01p4NOoYEu4JwTNmJSpaV9bDZyhHZjf2mgqKx8nmrL0G3lRxAhqwQ/cApsqSeLbIHOHs3AHrr5tSwNMWNa7PbnnLlcWVBNwuDh5thlxBOWIzLZxnyypSsYwN+cWhyi6xNji/oq3PYu05slbjZ8KFGVkbYUOhat4R1bzu3ZojpoFWhpHkwfmpZuGog6xGUEragJJbkvJO8GQrpQk9Q8Lf9HG/scn+gUQkRr7e2MzlBL0CG6n/lAd6Xnkn/ABOKR9Hp8b+ztCg+aFBgW6O3EgxWI0ZseA1HQlCAeJIT0k8T0mvp40pxoMkK8ZXpP41d/JB/d+7fxhz8sxVIK8ZXpP41d/JB/d+7fxhz8sxQWRUI1Ryd2K+pekw0N2+6EFQeZRiO+rpxIaTu3+UADvydrGKm9KDK93s91sc12Bco6mX0b0k723WycBxpfQUnr9W4jA9MB2A1JaVPjKkxDlDzbbqmnQlW7baWN20OkZBHWN9aV1Fpy1algLhTkYWnaXEkoAL0Z0jxkE8Du2h0H0gEZ0vtjuWn7i/bZ7ey434bTiclp9lRIS60T0pOPUQQd4wAl8jk2cnwWbtpS5NXKE+guNsSdliUnG4t7eebKgdys7FQWbAuNtkLiz4r8WQjpbkNqbVjOAobQ3g8CN1SjQur3dNT+ZkqUqzzVpTMQMq5hfiiS2BxHQrHSOspGL3n2yyXyIlmfGjTYriQtorAWAFp3OMup8IEjoKVCgy/CnT7dIalwZL0aS0fAdYWpCx1jI4HiONWzpjlVadLUPUqUtOHCUXFhGGlHo/4hpPR6UjG/oAGa5mpuSudED0zTy1zI4ytUJ4jutA6TzKtyVgdW4/vGqzcbcaWttxKkOIUpC0LBSpCknBSpJ3gjjQazadZfbbeZcbdadSlbbjSkrbWhQyFJUnIIPpr91nDS2tLzpl0NtqMm2LXtPwXVEI39K2Fb9lXoGDxBxuvqx360ahhIm218LRuS80sBL8dwjPNvIzuP3HgSKDq0pSgUpSgUpSgUpSgUpXhSkIClKUEpSCpSlEBIAGSSTQfh11lht155xDbLSFuuuOqCENoQNpSlqVuAHGqL1xr9++LetlpU4zZkqKXV70O3Ag+MsdIb8lPHpPkoa/1wu+PLtNscUmzMOfOOJJBuDqDuWr/ANtJ8QcfGPAIgTLL8h1phhtbrzy0tNNtJK3HFrOEpSlO8k8KD8pSpakpSCVKISkAEkk7gABvq2NH8mJWGLlqVtSUnDjFsyUqI4Klkbx17AOesjemu/ofQEexIZud1S29eVpCm0eCtq3g/RQegueUrh0Dyl2BQfhppllttlltDbTSEttttJCEIQkYCUpSAABwrm3+9Q9P2qbdJW9LCMMtZwp99e5tpPpPTu3AE8K6tUPyn6iN0vH6JjuZg2dS2l7J8F2cdzqj+54g3dIV5VBCbjPm3SbMuE1wuypbqnXlnoydwSkcABgJHAADhVh8mekBPeRqG4tZhRnSLc0sZTIkoOC8c/RQejrV+5hUK03YpOorxCtjOUocVzkp0DPMRUEFxzqzwT2kDjWmYkWLBixYcVtLUeM0hhltPQlCBsgdfpoPcK80pQKcaU40GSFeMr0n8au7kg/UF2/jDn5ZiqRV4yvSfxq7uSD9QXbf/wCcOflmKCyaUpQKjOsdLRtT2xbOEIuMZK3bc+RjZcI3tLPTsLwAercfo4MmpQZMkMPxX340htTT7Dq2Xm1jCm3EKKVJUOsGrf5LNUmQ0dNzXMvR0Kdta1nJWwPCXHyeKPGT2ZHQivm5VtMAc3qWG30luPdQgbsnwGpB+5Cv5es1VsGbLt0yHOiOFuTEebfZUOC0HOCOo9BHEHHGg1d0iorqnRFl1M2t1SRFuiU4amspGVYGAmQjoUn7xjccbj2bHdot8tVuukfciUyFqRnPNOp8Fxs/ukEf/wBrpUGW73Ybxp+auFcmObc3qacQSph9v/1GV4GR946CAd1eLJfLtp+c3Otr/NuJ8F1tWVMvt5yW3kcUn2jpBBGRpK92O06ghOQLkyHGlZU24nCXmHMYDjK8blD2HoIIODnvVOlbnped3PJ+divFSoUtCSG5CB0gjgsfSGfaDkhe+l9U2vVEESIvzUpkJTNiLUC5HWeg8MoP0VY39hBAkFZXs93uVjnx7jb3S2+ycEHJbdbJG006kHelXH2jBAI0dpvUVu1LbWp8Q7Lgw3LjqILkZ/GShR4jik43jqIIAdqlKUClKUClKUCqk5TdYkc9pq2u9KQLu82d+/f3IlQ9rnu9YqZa31OnTNoW60Um5TCuPbkKAOFgAreUDwQCD0dJA47s5OLcdWtxxaluOKUta1kqUpSjkqUTvyeNB4AUtSUpBUpRASACSSTgAAVe+gNDosTKLrc20qvMhv5tChkQGljehP8A7hHjnh4o4lfA5MdHBZa1LcmspSom0MuDcVJ3GUpJ6uhvPEFXAE2/6qBSlKDg6tvg0/YbjcAUiRsdzwUnHhSnspRuO47O9ZHUk1mZSlrUpSlFSlKKlKUSSSTkkk1ZfK3ejJukGytK+atrQkSQD0ypCQoBQ/ZTs4/fNQrTVnXfb3arYM83IfBkKGRsRmwXHVZ69kHHaR10Fwcl+nxbLKbq+3iZeQl1G0N7cJP9kB+/vWesFPVVg1+G222kNttoShttCUNoSAEoQkbISAOAr90ClKUCnGlONBkhXjK9J/Gru5IM/oC7fxhz8sxVIq8ZXpP41d3JB+oLt/GHPyzFBZNKUoFKUoPnmxI0+JLhSkByPKZcjvJPFDiSk47eIrMF7tUmyXW42uRnnIj6mwrGA42fCbcA6lAg+utT1UvK7ZNpFsv7KN6D+j5pA3lJytlZx1eEkntFB8fJLfuYlzdPvr+bmBUyDtHokNpAdQn95Iz/ACdtXNWUrbPk2yfAuEc4ehyWpLe8gKLagrZVjgeg+mtSwpcefDhTo52mJkdmSyeOw6gLGe3fvoPorn3e0W29wJFuuDIcjvDpGA404M7LrSj0KTw9hyDg9ClBmHUmnbjpq5PQJY20HLkSQlJDclgnAWkcDwUM7j1jBP70vqObpm6MzmNpbCyGp0cHCZEcneN+7aHSk8D2Eg37qrTcPU1qegvbKJCMuwZBGSw+BgdAzsq6Fjq7QCM2zYUy3S5cGW0pqTFeWy8hXBaTjceIPSDxBzxoNTQJ0O5w4k+G6l2LKaS8yscUnpBHAg5ChwII4V9VUdyY6qNunCxTXcQLi7/wi1nwY8xW4J3/AEXNw9OOsmrxoFKUoFfla0NoW44pKEISVrWsgJSlIyVKJ3YFfqq+5Ub+bZZUWxheJV5K2l7J8JEJvHOnd5WQjo3gq6qCqtYahc1Je5c0FQhtZjW9ByNmMhRwog/SVvUfTj6NfvRmmndTXlmKpKhAj7Mi4uJyNlgH+zSrylncPWfo1Gq8gqHQSPQaDWjTLbDbTLKEttNIQ002gBKG20AJSlIG7AG4V+8GskbS/KV7TTaX5SvaaDW+DXrfeajMSJD6ghmO04+8s9CW20laifUKyZtL8pXtNNpflH2mg+u6z3rrcrlcXv7SbKekKGc7IWokIHYBgD0VaXJBZ/BvF8cRvUU22Io7tw2XniM/yAHsNVDXkKUNwJA7CaDW+DTBrJG0vyle002l+Ur2mg1vg0wayRtL8pXtNNpflK9poNb4NN+ayRtL8pXtNNpflK9poCvGV6T+NXfyQA/oC7fxhz8sxVH15BUOgkeg0Gt99MGskbS/KV7TTaX5SvaaDW+DTBrJG0vyle002l+Ur2mg1vg1zL/akXqzXa1rA/4uMtDRJ3JfT840s+hQSay3tL8pXtNNpflK9poPK0LbWttaSlaFKQtJGClSTggir15KbqZun3betWXbTJU0kZJPc0jLzZOe3bA9FURXkEjoJHoNBrfBpg1kjaX5SvaabS/KV7TQa3warLlS0t3ZEGoYTX/FQWwi4JQN7sROcOnHFvj+yf2KpXaX5SvaabS/KV7TQASkggkEEEEHBBHEGtG6F1H8orGy68sKuEIpiT9+9a0jwHsftjed3SD1VnGpdyfX/wDQeoIodXswblswZmThKdtXzTp4eCrGT1E9dBoqlKUCs3a5vRvmpLm+he1Fir7ghb8p5mOSkqT2KVtK/m7KvTVt1Nl07e56VbLyIymYxBwoSHyGW1D0E7XqrMlBJ9FaYGqLquI8461Cjx3JEt1nZ2wPEbQgrBTkkjpHQDVj96DTPnK7+9F+FX2cltoFv073etGJF3fVIJIwoRmSWmkn/Wofv1PqCte9Bpnzld/ei/Cp3oNM+crv70X4VWVSgrXvQaZ85Xf3ovwqgGutNWfS863QYEiY+49EVKkGWpo7KVOKbbCOaQnyVZznhWiazpyizO7NXXrBy3FLEJvs5lpIWPeKqDiWK2G83i0WwFSUzZbTLikY2kM52nFpyMZCQSPRVud6DTXnK7e9F+FUP5KYQk6nVJUN1vt8p9J6nHdmMB7FK9lX1QVr3oNNecrt70X4VO9Bprzldvei/CqyqUFa95/TXnK7e9F+FTvQaa85Xb3ovwqsqlBWvef015yu3vRfhUHI/prP6yu3vRfhVZVONBkgjBI6iRVhaG0LaNUWybNmS5zLjE9UVKYxZCCgMtuZPOIUc+F11XqvGV6T+NXfyQf3fu38Yc/LMUH57z+mvOV296L8Kneg015yu3vRfhVZVKCte8/przldvei/Cp3oNNecrt70X4VWVSgrXvQaa85Xb3ovwqd6DTXnK7e9F+FVlUoKF11oaDpaJbJkGTLfakSHY0gyi0dhexzjexzaE9OF59FQRnmedZ5/b5nnEc9zeNvm9obWzkEZx0bq0LykQhM0ldjs5XDXGmt9nNuhCz7qlVnegu0ckOl1AKTc7uUqAUk7cXek7wf7KvPeg0z5yu/vRfhVLtJTf0hprTkonKlW+O04rrcYHMLPtSa7lBWveg0z5yu/vRfhU70GmfOV396L8KrKpQU1qnkyt1nsk652yXPffhbDzrUksqSYwOHCkNtpOU5CunoBqrK1o8yzIZeYeQFsvtrZeQroW2tJSpJ9INZavNtdtF1ulsdyVQpTrAURjbQDlC8ftDB9dBobRV6/TunbXLWvaktN9xzSTk90RwEFSu1Q2VfzVI6pnkhupam3ezrUdiUwmdHBO4OsENuADrUCD/JVzUFWcsFx5uDYrWhW+TJemvAdITHTzSM9hK1e7VPxo70uTFisjL0l5qO0Otx1QQke01N+VSYZOqnI+fBt8GJGxndtLBkk/wCseyufyeQRO1bZApO03FW7Oc7O521LQfe2aDQkKIzBhwoTIwzDjsxWh+wygNj8K+ilKBSlKBWVLvKM663eaTky58yTn/qvKXu9tafucgxLbdZQJBjQZkjPVzTKl/7VlOguDkci4Z1JNI8d2FEQerm0uOrH+pNWxUB5KI/M6WU7/wDd3OW9nsSltj/tNT6gUpSgUpSgU40pxoMkK8ZXpP41d3JB+oLt/GHPyzFUirxlek/jV3ckH6gu38Yc/LMUFk0pSgUpSgUpSg+C8Re7rReoeMmVbpscD9pxlSRWVq1xWUrpH7kuV1i4x3NOlx8Dhzbqkf7UF48lUrujSqGSf+RuEyMB1BezJ/7zU8qquRyRtQ9SRM/2MmFIA/6zbiCf9Aq1aBSlKBVHcrdt7mvkC5IThFzhhLh8qRFIbV/pLfsq8arvlagh/TsSYE+HAuDRKupmQhTSh6zseygqfSVx/RWpLBNKtlCJrTTxJwAy/lhwn0BRNabrJAyDkdI37q1JartGmWu0S3HEhcqBDkrB6Qp1lLhB9tBnfVsxM/UuopSVbSHJ76W1dbbZ5pJ9gFTHkfjBd4vUsjPc9tSwM8DIeSrPsQarNSlKUpSiSpRJJPSSauDkbZwxqd/Hju25kH/ppeWf/kKC16U3030ClN9N9BwtXulnS+qFg9NqmNf5qC1/vWZONaQ5QFFGj9RnoyxHR78lpP8AvWb6DRnJ00GtHafHFaJbp7duU8ofdipZXA0Y3zeldMJx022Ov/MBX/vXf30ClN9N9ApTfTfQKcab6UGSFeMr0n8au7kg/UF2/jDn5ZiqRV4yvSfxq7+SDPyfu38Zc/LMUFkUpvpvoFKb6b6BSm+m+gVmXWLXM6p1Qjrukt3/ADVl3/etNYNZx5Q0BvWOokji7FX78Vlf+9BKOR10ifqJj/1IcV3/ACnVJ/7quaqN5IVkaiuaOC7M+fWmTH//AHV5b6BSm+m+gVHNbxu69J6laxnZgqk+uKpMn/tqR76+G8tc/aL2xjc9bZzR/nYWmgyrxqX2/U8qPChsbf8AYNJZHhfRR4I+6ohXnJ66DxXkFQ6CR6Ca8VPNB6Ns+qmLs5NlTmXIT0ZCBEUyElDqVnKucbVv8Gggm0ryj7TTaV5R9pq7u9BpfzjePfifBp3oNL+cbx78T4NBSO0ryj7TTaV5R9pq7u9BpfzjePfifBp3oNL+cbx78T4NBSO0o9JPtNeKtbVHJrYbHYbrdYs25OyIiGFNofXHLZ2322lbQQ0D0E431VNB52l+Ur2mm0vyle01bti5MNOXWzWe4vT7oh2bCYkOpaXGCErWnJCdponHrro96DS/nG8e/E+DQUjtL8pXtNNpflK9pq7u9BpfzjePfifBp3oNL+cbx78T4NBSO0vyle002l+Ur2mru70Gl/ON49+J8Gneg0v5xvHvxPg0FI7S/KV7TTaX5Svaau7vQaX843j34nwa896DS/nG8e/E+DQUfXkKUOgkegmh3EjqJqw9C6Fs+qLZNmzZU9lxieqKhMVTAQUBltzJ5xtRz4XXQV5tL8pXtNNpflK9pq7u9BpfzjePfifBp3oNL+cbx78T4NBSO0vyle002l+Ur2mru70Gl/ON49+J8Gneg0v5xvHvxPg0FI7S/KV7TTaX5Svaau7vQaX843j34nwad6DS/nG8e/E+DQUjtL8pXtNeCSd53ntq7+9BpfzjePfifBqq9VWmJYr/AHS1RHHnI8RUdKFyCguq5xht07RQlKelRHRQcUEjoJHoptL8o+01KND6chaou0m3zHpLLLVvemBUUthZWh1poA84lQx4R4cKsbvQaX843j34nwaCkdpXlH2mm0ryj7TV3d6DS/nG8e/E+DTvQaX843j34nwaCkdpXlH2mm0ryj7TV3d6DS/nG8e/E+DXpl8k+l4sSbJ/SF3Pc8Z9/BciYJbbUsZ+Z7KClqUpQfdd4Rt10usA9MOZIj/5aynNWRyOPhMrUsYne7HgvgdjK3UE/wCsVF+UeL3Lq+9YGESe5paO3nWEbR94Kr7OSyYI2q2WScCfBmRB1bSQmSP/AIUF/UpSgUpSgjmuG+d0lqZHTiCp3/KWlz/as1ca1JqFkyLBqNgDJdtFxQkftGOvFZboNJaDd53SOm1Z6Iimv8p5xv8A2qTVCuTB4O6QtzYOTGkz2D2Evqex/qqa0ClKUClKUCnGlONBkhXjK9J/Gru5IP1Bdv4w5+WYqkVeMr0n8au/kg/u/dv4w5+WYoLIpSlApSlApSlArNeunOd1bqVWeibzf+U2hv8A2rSlZc1G8JGoNRvg5S7dritB/ZMhePuoJvyPt5vV6ex4lrDef+pIbV/21dlVFyNsna1TII3AW1lJ7SX1q/AVbtApSlArjapfEbTepnicbNpnpSf23GVNp+8iuzUL5TZgi6RuDecKnSIcNHXnnA+oexBoM910Y9tffZbdCF4XkjA6iRXOrQNh0nGNksSnUJDq7bCcdB6QtbKVqB9ZNBEeWGAUTbDcwNz8V6CsgdCo7nOpz6Qs+yq+sNw/RV6stwJITEnR3XSOnmQsBwetORV5cpdsNx0rNcQnadtrrVxRgb9hGW3d/UEqUT+7We6DW4IIBByDvBHQRXmo3oi6i76ZsshStp5lgQZOTlXPRvmsq7VAJV/NUkoFKUoPy4hDqHG1jKHEKQodaVDZIrJr7S2H32F+My640r0oUUn8K1pWZtZxDB1TqVgjANwekJHUiTiSnHqUKCzuR+SF2W8xCcmPcg/jqTIZQkfeg1ZdUryPzA3db5BJ/wCagNSR2mM7s49jh9lXVQKUpQKUpQKcaU40GSFeMr0n8au/kg/u/dv4w5+WYqkFeMr0n8au7kg/UF2/jDn5ZigsmlKUClKUClKUHrfeRHYkSHPEYaceX+62kqP4Vk5xa3XHHVnwnFqcUe1R2jWldZzO4dLalfzgm3uxkniFSiIySPerM9BePJFG5uwXOSRgyLq4kHrQyy0B95VVj1FeT6IYekbAlScLfaemK7RIeW4k+6U1KqBSlKBVRcsVwGdP2pKt4Ei4vJ7D8w0fucq3azbrm6i76nvMhCtphh3uGNg5TzUYc1lJ6lHaV/NQcS2Q13G42yAjO1NmRooIGcc64lGfVnNarSAhKUIACEJCUgdASBgAVQnJbbDO1M3LUklm1RnpRJHg884OYbSe3wiofu1flB632WZLL8d5IWzIacYeSehTbiShQPqNZau9tftFzudseztwpLrG0RjbSk+AsDqUMEemtVVTnK5Yy3It9/Yb8CQBBnFI6HmwVMrV6U5T/IOug+Tkt1JCtb91tlxlsRocpCZjDsp1DTSJDWG1J2lkDK0ke521avyq0f8AWCy/b439dZgpQaf+VWj/AKwWX7fG/rp8qtH/AFgsv2+N/XWYKUGn/lVo/wCsFl+3xv66pnlNdtEq/sz7bOhy25cBjn1RH23gl9lSmsKLZOPBCcVBqUEm0Lc2bTqizypDyGYq1PRpLjqghtLbzSkBS1K3AA7JPoq+flVo/wCsFl+3xv66zBSg0/8AKrR/1gsv2+N/XT5VaP8ArBZft8b+uswUoNP/ACq0f9YLL9vjf10+VWj/AKwWX7fG/rrMFKDT/wAqtH/WCy/b439dPlVo/wCsFl4//Xxv66zBSg8q8ZXpP41cHJbebFbbJc2bhdLfEdXdXHENy5LLK1IMdlO0EuEHGQRnsqnqUGn/AJVaP+sFl+3xv66fKrR/1gsv2+N/XWYKUGn/AJVaP+sFl+3xv66fKrR/1gsv2+N/XWYKUGn/AJVaP+sFl+3xv66fKrR/1gsv2+N/XWYKUFy8p2pLNLsMaBbblCluSp7Sn0w5DT2ywylS/DDZOMq2cejsqm0pK1JSCkFSgkFRCUjJxkk7sV4pQaXg3/RcGFBhN6gsvNw4seKjE+N4rLaWx9Lsr6PlVo/6wWX7fG/rrMFKDT/yq0f9YLL9vjf10+VWj/rBZft8b+uswUoNE6j1rp6DZbrIt13t0meI6mobUSUy67z7vzaVhKFE4TnaPo7azsd9K6NjtUi93a22tjIXMfS2pQGebaHhuOY/ZSCfVQXRyV2c2/T657qNl+8P8+MjCu5WcttA+k7ah2KFT+vVGjsRI8aLHQEMRmWo7CB0IabSEJSPQAK9tArnXu1Rb3a7ja5O5uWyUBeMlpweE24B1pIB9XbXR9VKDKE6FLt0yZBltluTEecYeTwC0HBweIPSDxB7ak+goukrldFWq/ww6qaALe93RJZ2X0ZJZVzK0p8MeLniMfSqZcqumC62jUsNvLjKUMXVKRvU1uS1I/l8VXZjgmqfbccaW242tSHG1pW2tBKVIWk5Ckkb8jhQaF72vJ95pV9un/Frz3teT7zSr7dP+LXt0RqlrU1qSt1SBdIYQzcGxgbSuhL6APor+4gjhkyv1UEP72vJ95pV9un/ABa+ebyZaKXDnIhW5TUxcZ5MR0zJig2+UHm1FK3CkjOM5FTj1UoMkLSpClIWClSFFKkkYIUDggirS5PNN6L1HapZuNv524wZRbeUmVLbK2HU7bSyhtwJ4KT0fR7ajfKJaDadT3AoTsx7ji5Mbt3z5POJ3btywrd1EV7+TS8i1akjx3V7MW7I7gcycJDxO0wo9u14I/fNBaXe15PvNKvt0/4tO9ryfeaVfbp/xamHqp6qCH97Xk+80q+3T/i072vJ95pV9un/ABamHqp6qCH97Xk+80q+3T/i0HJryfZ/VKvts/41TD1U40GSFYClAdAJq0uTnSWmL/aLhKusIyH2bkuO2sSJLWGww0vZ2WVpHSTwqrVeMr0n8au7kg/UF23f+cOflmKDs97Xk+80q+3T/i072vJ95pV9un/FqYeqnqoIf3teT7zSr7dP+LTva8n3mlX26f8AFqYeqnqoIf3teT7zSr7dP+LX4d5O+TiO09IetZQyw2t51Sp0/ZS22CpROHegAVM/VUG5TbyLZpx2I2vEm8OdxIAOFCOMLfV6MYQf36ChpK2HJMpyOzzMdx51bDO0pXNNKUSlG0oknAwN5qxOTfR1mv0W7T7zFU+wh9qJDSHn2QHEp5x1WWVJJ6UAb+v1VsASQBkknAA4mtN6UtH6D0/Z7cpOHm2A7K6+6Xjzrgz2E7I7BQcvva8n3mlX26f8Wne15PvNKvt0/wCLUw9VPVQQ/va8n3mlX26f8Wo9q7THJxpmzyZv6J2pjuY9uaVNnnbkrScKUnnfFR4yvRj6VWY++xGZfkSHENMMNreeccOEttoBUpSj1AVnHWepntT3dySnbTAjbTFuaVuKWc73FDo2l9KvUN+zmgjVXPyUadMeLJ1DJRh2aFRYAUN6YyVfOODPlkYHYnqVVa6V09I1JeItvRtpjg8/OeT/AIMVBG0QT9I7kp3dJ6hu0tHYYisMRo7aWmI7TbLLaNyW220hKUpHUBQe2lPVT1UClKUH4dbaeadZeQlxp1tbTrawChbawUqSoHdgjcaznrTSr2mboptsLVbJZW9bnlZPgA5Uys+UjIHaMHjgaPrlX6x2/UNtk22an5tzC2nEgFyO+nOw63niPvBI6DQZwsN7uGnrlGuUJXzjeUOtqPgPsKI22nOw49RAPSK0jY73bb/bo1ygL2mnRsuIVjnGHkgbTLoHQofeCCNxyc3X2yXLT9xk22cjDjRCmnE55t9lROw60T0pP3EEHeMD7dK6puOl54kx8uxXtlE6IpWEPtg7iDwWnfsnHtBIIaXpXPtF3tl7gsXC3Ph2O6MHoDjTgGVNOp6QocR694OT0KCAcqNj/SVhTcWUFUmzLU+dkZUqI7hLw9WEq9CT11RCFrbWhaFKStCkrQpJIUlSTkEEcRWs3W2nm3WXUJW06hbTqFDKVoWClSSOoisy6osbunr1PtqgosoXzsNav8WK5ktqz1jxVdqTQaC0te29QWO23IFPPLb5mYlOPAlNYS4MDoB8YdihXbqh+THUgtN2VapTmzBu6kIQVHCWZo3Nq38F+Ie3Z6qvigUpSgU40pxoMkK8ZXpP41d/JB/d+7fxhz8sxVIK8ZXpP41d3JB+oLt/GHPyzFBZNKUoFKUoFZ35Q78L5qGUGV7UK27UCLg5SsoUeddGN3hKzg8QkVbOv9SDT9kdDDmzcrjtxIODhbYKfnXxjyAd3aoVnagmHJ5Y/wBNajhKcRtRLZi4ycjwSWlDmmzw3qxkcQDWiBUM5O9PGxWBl19GzPupRNlBQwpDZT8yyePgg5IPQVkcKmdApSqg1/r9K0ybFYn8tq2mrjOZVuWOhTEdQ4cFK49A3byHw8o+tRc3HLDangbcw4O7n2z4Mx9BzsII6W0EdPEjPQkFVcMMPyXmI7Da3X33EMsttjK3HFkJSlIHEmvXV3cnOiTa2mr7dWcXJ9smEw4PChsrGNtYPQ4ocOAOOlRCQkWi9Ls6YtSGV7CrjK2Hrk8neC4AdlpB8lAJA6ySd21gSilKBSlKBSlKBSlKCP6p0vbtUQDFkANSWdtcGWlOVx3SN+RxQrdtDj2EAjO93s90sU5+33FktPtb0kZLbzZJCXWV8UngfUcEEDVFcXUWm7RqWEYk9rDiNpUWS2Bz8Zw9KkE8Du2gdx9IBSGe9O6lvGmpolwHMtr2UyozhJYktg9CwOI+iRvHoJB0BpvVNl1NF56C7syG0gyobpAkRzu6RxT1KG70HcKC1Hpe9aZlFic0VMLUe5ZbQJjyE9Pgk9ChxSd47RvPKhTp1ukszIMh2PJZVtNusqKVp6xu4HoI6DQawqCcpGmDe7T3fFb2rlaUuOoCR4T8XG061u6SMbSfQQPGrmaX5UoMwNQtQ83ElbkImoGIjx6MvDpQT1+L0+L0VZiFtuobcbWlba0pW2tCgpKkkZCkqG4g0GSgSCCDjByCOkeitCaB1WnUdrSzJcBu1vShqYFHCpDfiokgdvQvt6goZrjlG0kbJPN0gtH9FXF1SilA8GJKUSpTW7cEq3lHrH0d8Ss13uFiuMS5QV7L0dW9Ks8282fGacA6UqG4+0YIyA1PSuPp7UFs1HbmrhCWBnCJLClAuxnsZLa8fccbxv8AR2KBTjSnGgyQrxlek/jV38kH937t/GHPyzFUgrxlek/jV38kH937t/GHPyzFBZFKUoFeiVKiwY0mXLdQzGjNLefdXnZQhIyTu3+gYr3FQSCSQAASSo4AA35JNUXyh62F7eNotjv/AITGcBedQcCc+g7lZH+Gn6PWd/AYCNaq1FJ1Ld5Nwc2kR0/MQWSf7GMgnZBwT4R3qVv6T1AY63J5pg3+8IkSW9q2WwokStoeA870tMb+sjKuxJH0hUWttunXadDt0JouSpTgbaTvwOJUo8EpGSo8AK0tp2xwtO2qJbIuFc2OckO7OyqRJWBtuqHbuA37gAOFB169T8iPFZekSXmmWGUFx115SUNtpHFSlHAFcHUesNPaabUJj/OzSnLUGMUrkKyMgrHQlJ6z6gcYqj9Tayvup3SJLnMQEL2mILCjzKCNwU4TvUrtPbgDOKCTa15R3rmJFqsTjjNuUFNSZeFIfmJ6ClvOFJbPHoJ6DgEhVab69jDEiS60xHacefeWltpplCluOLVuCUpSCSaurRPJyzayxdb62h65J2XI0Q4WzDV0hayPBU4OHAdIyQCkPh5P+T8smNfb6xh4bLtuhOp3tHpS/ISfpcUp4dJ37k2xSlApSlApSlApSlApSlApSlB8s6Bb7lFfhz4zUiK8nZcadTlJ6iD0gjgQQRwqmdVcmNytxem2IOzoO9a42AqZHT0+CB46fQM9hxtVeFKDJBBSSCCCCQQdxBHA1ILBrDUmnFBMCVtRNraXCkguxVEnJwnIKSeJSRV26j0LpzUXOPOtdyXFW8TYiQlalY/x0eKvh0793SKqC/8AJ9qqx846GO74KcnumClS9lPW6z46e3cR20FgQ+ULRupYT9qv7PcPdbfMvIkEuRHM4wpD6RlJB8IEpGMDfuqr9Tabk6flp2HUy7XK2nLbPZKVsyGs9G2jKdtP0hnt6DXAr2B+QllyOl50MOLS440FqDa1p3JUpGcZHA4oOnYNQXXTk9E6A504RIYXksyGs52HEj7j0j8dA6a1XZdTxudhuc3KbQDKhOqHPsHoJHlIz0KHXvwdwzPXuiypcJ9qTEfdYkMq2mnWFqQ4hXRlKk76DWVONU3YeVuUyltjUEQyUgBPdkIIQ+R1usnDZPaCn0GrDt+tdF3JKTHvMNCiBluWvuVwHq2ZGzn1E0GaVeMr0n8au7kg/UF2/jDn5ZiqRV4yvSfxq4eS+72W16eupuNxgxNq7OrSmTIabcUkRmBlDajtn1Dh2UFrV6ZMmLDYekynmmI7KSt115aUNoSOKlK3VAbzyr6ahpW3amn7k/vCV7Ko8UHo3rcTzhx2I39dVRf9V6h1I6FXGT8whW0zEjgtxWjv3hvJJPTvUSd/TjdQSnW/KG7eQ/arMpbVqOUSJBCkPTgOkYOFJbPV0njgHZqvmGH5LzTDDTjr7y0ttNMpK3HFqOAlCU7yTXqr2MvyIyy5Hedac2Vo22VqQvZWNlSdpJzgjcaC4NPo0jyeQ3JF6nMOaikt4kRohTJkxkZCu5UBskA8VkqAJHSQnJ4GoOVO+3AOR7O3+jIqsp50EOTVp6P7TGyn+UZHlVXVdK1WO+Xt7mLXBfkrBAWptOGm87/nHV4QPWoUHPcccdWtx1a1uOKUtxa1FS1qUclSlHeSeNdvT2lb9qV7Yt8ciOhYS/MeyiKzxIK+KujcATv6t4snTvJRCj81J1C+mW6MKEKKVpjJPU67uWr0AJHpFWbHjxorLUeMy0ywykIaaZQlDbaRwSlIAFBHNL6LsmmGttlPdFxWgJfnPJAcI4pZRkhCewHJ4k43SilKBSlKBSlKBSlKBSlKBSlKBSlKBSlKBSlKCOXnRek77trmQG25KsnuqHiPI2j9JRQNlR/eSary68kNxbK12a5MSEZJDM5JYdA6g42FIJ9ITVzUoMx3HSWrrXtGbZ5qUJyVOtN8+yAOJdY2kffXDwRkHpG45rXFfDLs9juP/P2yBKPAyYzLqh6FLST99BlWlXxqfROi49vflMWhpp9JOFMvSUJG7yEuBH3VRkhCUPOpSMJCiAN/X20HqpSlApVgaD09YLy+hNyh8+necF6Q30DP+EtNW7F0lo6FsmPY7aFJ3pW5HQ8tJ6wt4KV99Bm2HbLtcVbECDMlqzgiKw67j97YBxUwtnJbrGcUKlojW5k4JMt0Ld2TxS0xtb+wlNX2hCEJSlCUpSkYSlICUgdgG6v1QV/Z+SzS1vKHbgp65vpwcP8AzMXaHEMtnPqK1Dsqdx40WIy3HisMsMNjDbTDaG20DqShAAHsr20oFKUoFKUoFKUoFKUoFKUoP//Z;" vertex="1" parent="1">
          <mxGeometry x="320.32" y="530" width="65" height="65" as="geometry" />
        </mxCell>
        <mxCell id="x2dVQQzCQsfYvZ4flrbW-61" value="" style="shape=image;imageAspect=0;aspect=fixed;verticalLabelPosition=bottom;verticalAlign=top;strokeColor=default;fontFamily=Helvetica;fontSize=12;fontColor=default;fillColor=default;html=1;image=https://th.bing.com/th/id/OIP.Jf4x5iDb5I_rOoorg1wksgHaEm?w=256&amp;h=180&amp;c=7&amp;r=0&amp;o=5&amp;dpr=1.3&amp;pid=1.7;" vertex="1" parent="1">
          <mxGeometry x="470" y="240" width="56.75" height="40" as="geometry" />
        </mxCell>
      </root>
    </mxGraphModel>
  </diagram>
</mxfile>
